# 3ds Max Wavefront OBJ Exporter v0.97b - (c)2007 guruware
# File Created: 09.02.2018 12:36:55

mtllib Chain_visible.mtl

#
# object Box005
#

v  -16.7909 -3.2091 -40.0000
v  16.7909 -3.2091 -40.0000
v  16.7909 -6.7909 -40.0000
v  -16.7909 -6.7909 -40.0000
v  20.0000 -3.2091 -36.7909
v  20.0000 -3.2091 36.7909
v  20.0000 -6.7909 36.7909
v  20.0000 -6.7909 -36.7909
v  16.7909 -3.2091 40.0000
v  -16.7909 -3.2091 40.0000
v  -16.7909 -6.7909 40.0000
v  16.7909 -6.7909 40.0000
v  -20.0000 -3.2091 36.7909
v  -20.0000 -3.2091 -36.7909
v  -20.0000 -6.7909 -36.7909
v  -20.0000 -6.7909 36.7909
v  -13.2091 -10.0000 -33.2091
v  -13.2091 -10.0000 28.6707
v  -16.7909 -10.0000 32.2525
v  -16.7909 -10.0000 -36.7909
v  16.7909 -10.0000 -36.7909
v  13.2091 -10.0000 -33.2091
v  16.7909 -10.0000 36.7909
v  13.2091 -10.0000 33.2091
v  -12.2525 -10.0000 36.7909
v  -8.6707 -10.0000 33.2091
v  13.2091 -0.0000 33.2091
v  -8.6707 -0.0000 33.2091
v  -12.2525 -0.0000 36.7909
v  16.7909 -0.0000 36.7909
v  13.2091 0.0000 -33.2091
v  16.7909 0.0000 -36.7909
v  -13.2091 0.0000 -33.2091
v  -16.7909 0.0000 -36.7909
v  -16.7909 -0.0000 32.2525
v  -13.2091 -0.0000 28.6707
v  6.7909 -3.2091 30.0000
v  6.7909 -6.7909 30.0000
v  -6.7909 -6.7909 30.0000
v  -6.7909 -3.2091 30.0000
v  -10.0000 -3.2091 26.7909
v  -10.0000 -6.7909 26.7909
v  -10.0000 -6.7909 -26.7909
v  -10.0000 -3.2091 -26.7909
v  6.7909 -3.2091 -30.0000
v  -6.7909 -3.2091 -30.0000
v  -6.7909 -6.7909 -30.0000
v  6.7909 -6.7909 -30.0000
v  10.0000 -3.2091 26.7909
v  10.0000 -3.2091 -26.7909
v  10.0000 -6.7909 -26.7909
v  10.0000 -6.7909 26.7909
# 52 vertices

vn 0.0000 0.0000 -1.0000
vn 1.0000 0.0000 0.0000
vn 0.0000 -0.0000 1.0000
vn -1.0000 0.0000 0.0000
vn -0.0000 -1.0000 -0.0000
vn 0.0000 -1.0000 -0.0000
vn -0.0000 1.0000 0.0000
vn 0.0000 1.0000 0.0000
vn -0.5774 0.5774 -0.5774
vn 0.5774 0.5774 -0.5774
vn -0.3574 0.8629 0.3574
vn 0.5774 0.5774 0.5774
vn -0.5774 -0.5774 -0.5774
vn 0.5774 -0.5774 -0.5774
vn -0.3574 -0.8629 0.3574
vn 0.5774 -0.5774 0.5774
vn 0.3015 0.9045 0.3015
vn -0.3015 0.9045 0.3015
vn -0.3015 -0.9045 0.3015
vn 0.3015 -0.9045 0.3015
vn -0.3015 0.9045 -0.3015
vn -0.3015 -0.9045 -0.3015
vn 0.4706 0.7463 -0.4706
vn 0.4706 -0.7463 -0.4706
vn -0.7071 0.7071 0.0000
vn 0.0000 0.7071 0.7071
vn -0.0000 0.7071 0.7071
vn 0.7071 0.7071 0.0000
vn 0.0000 0.7071 -0.7071
vn -0.0000 0.7071 -0.7071
vn 0.0000 -0.7071 -0.7071
vn 0.7071 -0.7071 -0.0000
vn 0.0000 -0.7071 0.7071
vn -0.7071 -0.7071 -0.0000
vn 0.7071 0.0000 -0.7071
vn -0.7071 0.0000 -0.7071
vn 0.7071 -0.0000 0.7071
vn -0.7071 -0.0000 0.7071
# 38 vertex normals

vt 0.1129 0.4587 -0.4222
vt 0.8871 0.4587 -0.4222
vt 0.8871 0.5413 -0.4222
vt 0.1129 0.5413 -0.4222
vt -0.3482 0.4587 0.9611
vt 1.3482 0.4587 0.9611
vt 1.3482 0.5413 0.9611
vt -0.3482 0.5413 0.9611
vt 0.1129 0.4587 1.4222
vt 0.8871 0.4587 1.4222
vt 0.8871 0.5413 1.4222
vt 0.1129 0.5413 1.4222
vt -0.3482 0.4587 0.0389
vt 1.3482 0.4587 0.0389
vt 1.3482 0.5413 0.0389
vt -0.3482 0.5413 0.0389
vt 0.1955 -0.2656 0.6153
vt 0.1955 1.1610 0.6153
vt 0.1129 1.2435 0.6153
vt 0.1129 -0.3482 0.6153
vt 0.8871 -0.3482 0.6153
vt 0.8045 -0.2656 0.6153
vt 0.8871 1.3482 0.6153
vt 0.8045 1.2656 0.6153
vt 0.2175 1.3482 0.6153
vt 0.3001 1.2656 0.6153
vt 0.1955 1.2656 0.3847
vt 0.6999 1.2656 0.3847
vt 0.7825 1.3482 0.3847
vt 0.1129 1.3482 0.3847
vt 0.1955 -0.2656 0.3847
vt 0.1129 -0.3482 0.3847
vt 0.8045 -0.2656 0.3847
vt 0.8871 -0.3482 0.3847
vt 0.8871 1.2435 0.3847
vt 0.8045 1.1610 0.3847
vt 0.6566 0.4587 1.1916
vt 0.6566 0.5413 1.1916
vt 0.3434 0.5413 1.1916
vt 0.3434 0.4587 1.1916
vt 1.1176 0.4587 0.2695
vt 1.1176 0.5413 0.2695
vt -0.1176 0.5413 0.2695
vt -0.1176 0.4587 0.2695
vt 0.3434 0.4587 -0.1916
vt 0.6566 0.4587 -0.1916
vt 0.6566 0.5413 -0.1916
vt 0.3434 0.5413 -0.1916
vt -0.1176 0.4587 0.7305
vt 1.1176 0.4587 0.7305
vt 1.1176 0.5413 0.7305
vt -0.1176 0.5413 0.7305
vt 1.4222 0.4587 0.1129
vt 1.3482 0.3847 0.1129
vt 0.8871 0.3847 -0.3482
vt 0.9611 0.4587 -0.3482
vt 0.9611 1.3482 0.4587
vt 0.8871 1.4222 0.4587
vt 1.3482 0.3847 0.8871
vt 1.4222 0.4587 0.8871
vt 1.4222 0.5413 0.1129
vt 1.3482 0.6153 0.1129
vt 0.9611 0.5413 -0.3482
vt 0.8871 0.6153 -0.3482
vt 0.0389 1.3482 0.5413
vt 0.1129 1.4222 0.5413
vt 1.4222 0.5413 0.8871
vt 1.3482 0.6153 0.8871
vt 0.7305 -0.1176 0.4587
vt 0.6566 -0.1916 0.4587
vt 0.3434 -0.1916 0.4587
vt 0.2695 -0.1176 0.4587
vt 0.6566 -0.1916 0.5413
vt 0.7305 -0.1176 0.5413
vt 0.2695 -0.1176 0.5413
vt 0.3434 -0.1916 0.5413
vt 0.2695 1.1176 0.4587
vt 0.3434 1.1916 0.4587
vt 0.6566 1.1916 0.5413
vt 0.7305 1.1176 0.5413
vt 0.6566 1.1916 0.4587
vt 0.7305 1.1176 0.4587
vt 0.2695 1.1176 0.5413
vt 0.3434 1.1916 0.5413
vt 0.9611 -0.3482 0.4587
vt 0.1129 1.4222 0.4587
vt -0.3482 0.3847 0.8871
vt 0.1129 -0.4222 0.4587
vt 0.8871 -0.4222 0.4587
vt 0.1129 0.6153 -0.3482
vt -0.3482 0.6153 0.8871
vt 0.1129 0.6153 1.3482
vt 0.7825 0.6153 1.3482
vt -0.2435 0.6153 0.1129
vt 0.9611 0.4587 1.3482
vt 0.9611 0.5413 1.3482
vt -0.2656 0.6153 0.8045
vt 1.2656 0.6153 0.8045
vt -0.2656 0.6153 0.1955
vt 1.1610 0.6153 0.1955
vt 0.3001 0.6153 1.2656
vt 0.8045 0.6153 1.2656
vt 0.2695 0.5413 -0.1176
vt 0.2695 0.4587 -0.1176
vt -0.1916 0.5413 0.6566
vt -0.1916 0.4587 0.6566
vt 0.2695 0.5413 1.1176
vt 0.2695 0.4587 1.1176
vt -0.1916 0.4587 0.3434
vt -0.1916 0.5413 0.3434
# 110 texture coords

g Box005
usemtl 02___Default
s 8
f 1/1/1 2/2/1 3/3/1 
f 3/3/1 4/4/1 1/1/1 
s 16
f 5/5/2 6/6/2 7/7/2 
f 7/7/2 8/8/2 5/5/2 
s 32
f 9/9/3 10/10/3 11/11/3 
f 11/11/3 12/12/3 9/9/3 
s 64
f 13/13/4 14/14/4 15/15/4 
f 15/15/4 16/16/4 13/13/4 
s 4
f 17/17/5 18/18/6 19/19/5 
f 17/17/5 19/19/5 20/20/5 
f 17/17/5 20/20/5 21/21/6 
f 22/22/6 17/17/5 21/21/6 
f 22/22/6 21/21/6 23/23/6 
f 24/24/6 22/22/6 23/23/6 
f 24/24/6 23/23/6 25/25/6 
f 24/24/6 25/25/6 26/26/6 
s 2
f 27/27/7 28/28/8 29/29/8 
f 27/27/7 29/29/8 30/30/7 
f 31/31/7 27/27/7 30/30/7 
f 31/31/7 30/30/7 32/32/7 
f 33/33/8 31/31/7 32/32/7 
f 33/33/8 32/32/7 34/34/8 
f 33/33/8 34/34/8 35/35/7 
f 33/33/8 35/35/7 36/36/7 
s 32
f 37/37/1 38/38/1 39/39/1 
f 39/39/1 40/40/1 37/37/1 
s 64
f 41/41/2 42/42/2 43/43/2 
f 43/43/2 44/44/2 41/41/2 
s 8
f 45/45/3 46/46/3 47/47/3 
f 47/47/3 48/48/3 45/45/3 
s 16
f 49/49/4 50/50/4 51/51/4 
f 51/51/4 52/52/4 49/49/4 
s off
f 1/53/9 14/14/9 34/54/9 
f 32/55/10 5/56/10 2/2/10 
f 13/57/11 10/58/11 29/29/11 
f 29/29/11 35/35/11 13/57/11 
f 30/59/12 9/60/12 6/6/12 
f 4/61/13 20/62/13 15/15/13 
f 8/63/14 21/64/14 3/3/14 
f 16/65/15 19/19/15 25/25/15 
f 25/25/15 11/66/15 16/65/15 
f 12/67/16 23/68/16 7/7/16 
f 33/33/17 44/69/17 46/70/17 
f 45/71/18 50/72/18 31/31/18 
f 48/73/19 22/22/19 51/74/19 
f 43/75/20 17/17/20 47/76/20 
f 49/77/21 37/78/21 27/27/21 
f 24/24/22 38/79/22 52/80/22 
f 28/28/23 40/81/23 41/82/23 
f 41/82/23 36/36/23 28/28/23 
f 18/18/24 42/83/24 39/84/24 
f 39/84/24 26/26/24 18/18/24 
f 34/34/25 14/85/25 13/57/25 
f 13/57/25 35/35/25 34/34/25 
f 29/29/26 10/58/26 9/86/26 
f 9/86/27 30/30/27 29/29/27 
f 30/59/28 6/6/28 5/5/28 
f 5/5/28 32/87/28 30/59/28 
f 32/32/29 2/88/29 1/89/29 
f 1/89/30 34/34/30 32/32/30 
f 20/90/31 4/4/31 3/3/31 
f 3/3/31 21/64/31 20/90/31 
f 21/91/32 8/8/32 7/7/32 
f 7/7/32 23/68/32 21/91/32 
f 23/92/33 12/12/33 11/11/33 
f 11/11/33 25/93/33 23/92/33 
f 19/94/34 16/16/34 15/15/34 
f 15/15/34 20/62/34 19/94/34 
f 2/2/35 5/56/35 8/63/35 
f 8/63/35 3/3/35 2/2/35 
f 4/61/36 15/15/36 14/14/36 
f 14/14/36 1/53/36 4/61/36 
f 6/6/37 9/60/37 12/67/37 
f 12/67/37 7/7/37 6/6/37 
f 10/10/38 13/95/38 16/96/38 
f 16/96/38 11/11/38 10/10/38 
f 33/33/27 46/70/27 45/71/27 
f 45/71/27 31/31/27 33/33/27 
f 22/22/33 48/73/33 47/76/33 
f 47/76/33 17/17/33 22/22/33 
f 31/31/25 50/72/25 49/77/25 
f 49/77/25 27/27/25 31/31/25 
f 24/97/34 52/52/34 51/51/34 
f 51/51/34 22/98/34 24/97/34 
f 36/36/28 41/82/28 44/69/28 
f 44/69/28 33/33/28 36/36/28 
s 2
f 28/28/8 36/36/7 35/35/7 
f 35/35/7 29/29/8 28/28/8 
s off
f 27/27/29 37/78/29 40/81/29 
f 40/81/29 28/28/29 27/27/29 
s 4
f 25/25/6 19/19/5 18/18/6 
f 18/18/6 26/26/6 25/25/6 
s off
f 17/99/32 43/43/32 42/42/32 
f 42/42/32 18/100/32 17/99/32 
f 26/101/31 39/39/31 38/38/31 
f 38/38/31 24/102/31 26/101/31 
f 48/48/38 51/103/38 50/104/38 
f 50/104/38 45/45/38 48/48/38 
f 52/52/36 38/105/36 37/106/36 
f 37/106/36 49/49/36 52/52/36 
f 39/39/35 42/107/35 41/108/35 
f 41/108/35 40/40/35 39/39/35 
f 46/109/37 44/44/37 43/43/37 
f 43/43/37 47/110/37 46/109/37 
# 104 faces

