# 3ds Max Wavefront OBJ Exporter v0.97b - (c)2007 guruware
# File Created: 09.02.2018 12:32:50

mtllib Chain.mtl

#
# object Box001
#

v  -20.0000 -0.0000 30.0000
v  -20.0000 -0.0000 40.0000
v  20.0000 -0.0000 40.0000
v  20.0000 -0.0000 30.0000
v  -20.0000 -10.0000 30.0000
v  20.0000 -10.0000 30.0000
v  20.0000 -10.0000 40.0000
v  -20.0000 -10.0000 40.0000
# 8 vertices

vn 0.0000 1.0000 0.0000
vn 0.0000 -1.0000 -0.0000
vn 0.0000 0.0000 -1.0000
vn 1.0000 0.0000 0.0000
vn 0.0000 -0.0000 1.0000
vn -1.0000 0.0000 0.0000
# 6 vertex normals

vt 0.9995 0.8746 0.9995
vt 0.9995 0.9995 0.9995
vt 0.0005 0.9995 0.9995
vt 0.0005 0.8746 0.9995
vt 0.0005 0.8746 0.0005
vt 0.9995 0.8746 0.0005
vt 0.9995 0.9995 0.0005
vt 0.0005 0.9995 0.0005
vt 0.9995 0.9995 0.8746
vt 0.0005 0.9995 0.8746
vt 0.0005 0.0005 0.8746
vt 0.9995 0.0005 0.8746
vt 0.0005 0.0005 0.9995
vt 0.9995 0.0005 0.9995
# 14 texture coords

g Box001
usemtl 02___Default
s 2
f 1/1/1 2/2/1 3/3/1 
f 3/3/1 4/4/1 1/1/1 
s 4
f 5/5/2 6/6/2 7/7/2 
f 7/7/2 8/8/2 5/5/2 
s 8
f 1/9/3 4/10/3 6/11/3 
f 6/11/3 5/12/3 1/9/3 
s 16
f 4/1/4 3/2/4 7/3/4 
f 7/3/4 6/4/4 4/1/4 
s 32
f 3/2/5 2/3/5 8/13/5 
f 8/13/5 7/14/5 3/2/5 
s 64
f 2/8/6 1/5/6 5/6/6 
f 5/6/6 8/7/6 2/8/6 
# 12 faces

#
# object Box002
#

v  -20.0000 0.0000 -30.0000
v  -20.0000 -0.0000 30.0000
v  -10.0000 -0.0000 30.0000
v  -10.0000 0.0000 -30.0000
v  -20.0000 -10.0000 -30.0000
v  -10.0000 -10.0000 -30.0000
v  -10.0000 -10.0000 30.0000
v  -20.0000 -10.0000 30.0000
# 8 vertices

vn 0.0000 1.0000 0.0000
vn 0.0000 -1.0000 -0.0000
vn 0.0000 0.0000 -1.0000
vn 1.0000 0.0000 0.0000
vn 0.0000 -0.0000 1.0000
vn -1.0000 0.0000 0.0000
# 6 vertex normals

vt 0.9995 0.1254 0.9995
vt 0.9995 0.8746 0.9995
vt 0.7498 0.8746 0.9995
vt 0.7498 0.1254 0.9995
vt 0.0005 0.1254 0.0005
vt 0.2502 0.1254 0.0005
vt 0.2502 0.8746 0.0005
vt 0.0005 0.8746 0.0005
vt 0.9995 0.9995 0.1254
vt 0.7498 0.9995 0.1254
vt 0.7498 0.0005 0.1254
vt 0.9995 0.0005 0.1254
vt 0.9995 0.1254 0.2502
vt 0.9995 0.8746 0.2502
vt 0.0005 0.8746 0.2502
vt 0.0005 0.1254 0.2502
vt 0.2502 0.9995 0.8746
vt 0.0005 0.9995 0.8746
vt 0.0005 0.0005 0.8746
vt 0.2502 0.0005 0.8746
vt 0.9995 0.1254 0.0005
vt 0.9995 0.8746 0.0005
# 22 texture coords

g Box002
usemtl 02___Default
s 2
f 9/15/7 10/16/7 11/17/7 
f 11/17/7 12/18/7 9/15/7 
s 4
f 13/19/8 14/20/8 15/21/8 
f 15/21/8 16/22/8 13/19/8 
s 8
f 9/23/9 12/24/9 14/25/9 
f 14/25/9 13/26/9 9/23/9 
s 16
f 12/27/10 11/28/10 15/29/10 
f 15/29/10 14/30/10 12/27/10 
s 32
f 11/31/11 10/32/11 16/33/11 
f 16/33/11 15/34/11 11/31/11 
s 64
f 10/22/12 9/19/12 13/35/12 
f 13/35/12 16/36/12 10/22/12 
# 12 faces

#
# object Box003
#

v  10.0000 0.0000 -30.0000
v  10.0000 -0.0000 30.0000
v  20.0000 -0.0000 30.0000
v  20.0000 0.0000 -30.0000
v  10.0000 -10.0000 -30.0000
v  20.0000 -10.0000 -30.0000
v  20.0000 -10.0000 30.0000
v  10.0000 -10.0000 30.0000
# 8 vertices

vn 0.0000 1.0000 0.0000
vn 0.0000 -1.0000 -0.0000
vn 0.0000 0.0000 -1.0000
vn 1.0000 0.0000 0.0000
vn 0.0000 -0.0000 1.0000
vn -1.0000 0.0000 0.0000
# 6 vertex normals

vt 0.2502 0.1254 0.9995
vt 0.2502 0.8746 0.9995
vt 0.0005 0.8746 0.9995
vt 0.0005 0.1254 0.9995
vt 0.7498 0.1254 0.0005
vt 0.9995 0.1254 0.0005
vt 0.9995 0.8746 0.0005
vt 0.7498 0.8746 0.0005
vt 0.2502 0.9995 0.1254
vt 0.0005 0.9995 0.1254
vt 0.0005 0.0005 0.1254
vt 0.2502 0.0005 0.1254
vt 0.9995 0.1254 0.9995
vt 0.9995 0.8746 0.9995
vt 0.9995 0.9995 0.8746
vt 0.7498 0.9995 0.8746
vt 0.7498 0.0005 0.8746
vt 0.9995 0.0005 0.8746
vt 0.0005 0.8746 0.7498
vt 0.0005 0.1254 0.7498
vt 0.9995 0.1254 0.7498
vt 0.9995 0.8746 0.7498
# 22 texture coords

g Box003
usemtl 02___Default
s 2
f 17/37/13 18/38/13 19/39/13 
f 19/39/13 20/40/13 17/37/13 
s 4
f 21/41/14 22/42/14 23/43/14 
f 23/43/14 24/44/14 21/41/14 
s 8
f 17/45/15 20/46/15 22/47/15 
f 22/47/15 21/48/15 17/45/15 
s 16
f 20/49/16 19/50/16 23/39/16 
f 23/39/16 22/40/16 20/49/16 
s 32
f 19/51/17 18/52/17 24/53/17 
f 24/53/17 23/54/17 19/51/17 
s 64
f 18/55/18 17/56/18 21/57/18 
f 21/57/18 24/58/18 18/55/18 
# 12 faces

#
# object Box004
#

v  -20.0000 0.0000 -40.0000
v  -20.0000 0.0000 -30.0000
v  20.0000 0.0000 -30.0000
v  20.0000 0.0000 -40.0000
v  -20.0000 -10.0000 -40.0000
v  20.0000 -10.0000 -40.0000
v  20.0000 -10.0000 -30.0000
v  -20.0000 -10.0000 -30.0000
# 8 vertices

vn 0.0000 1.0000 0.0000
vn 0.0000 -1.0000 -0.0000
vn 0.0000 0.0000 -1.0000
vn 1.0000 0.0000 0.0000
vn 0.0000 -0.0000 1.0000
vn -1.0000 0.0000 0.0000
# 6 vertex normals

vt 0.9995 0.0005 0.9995
vt 0.9995 0.1254 0.9995
vt 0.0005 0.1254 0.9995
vt 0.0005 0.0005 0.9995
vt 0.0005 0.0005 0.0005
vt 0.9995 0.0005 0.0005
vt 0.9995 0.1254 0.0005
vt 0.0005 0.1254 0.0005
vt 0.9995 0.9995 0.0005
vt 0.0005 0.9995 0.0005
vt 0.9995 0.9995 0.1254
vt 0.0005 0.9995 0.1254
vt 0.0005 0.0005 0.1254
vt 0.9995 0.0005 0.1254
# 14 texture coords

g Box004
usemtl 02___Default
s 2
f 25/59/19 26/60/19 27/61/19 
f 27/61/19 28/62/19 25/59/19 
s 4
f 29/63/20 30/64/20 31/65/20 
f 31/65/20 32/66/20 29/63/20 
s 8
f 25/67/21 28/68/21 30/63/21 
f 30/63/21 29/64/21 25/67/21 
s 16
f 28/59/22 27/60/22 31/61/22 
f 31/61/22 30/62/22 28/59/22 
s 32
f 27/69/23 26/70/23 32/71/23 
f 32/71/23 31/72/23 27/69/23 
s 64
f 26/66/24 25/63/24 29/64/24 
f 29/64/24 32/65/24 26/66/24 
# 12 faces

